<svg width="16" height="16" viewBox="0 0 16 16" fill="none" xmlns="http://www.w3.org/2000/svg">
<path d="M6.7663 0.842856C7.32303 0.39984 8.10752 0.384695 8.68092 0.805894L9.34215 1.2916C9.61269 1.49033 9.93961 1.5975 10.2753 1.5975H11.1785C11.8702 1.5975 12.481 2.04834 12.6848 2.70923L12.9164 3.46027C13.0153 3.7811 13.2141 4.06195 13.4838 4.26192L14.254 4.83297C14.8174 5.25071 15.037 5.99045 14.7928 6.64793L14.5271 7.36319C14.3995 7.70677 14.3956 8.08408 14.5161 8.43022L14.824 9.3147C15.0507 9.96573 14.828 10.6885 14.2742 11.0991L13.4838 11.6852C13.2141 11.8851 13.0153 12.166 12.9164 12.4868L12.6848 13.2378C12.481 13.8987 11.8702 14.3496 11.1785 14.3496H10.2753C9.93961 14.3496 9.61269 14.4568 9.34215 14.6555L8.60888 15.1941C8.06998 15.59 7.33995 15.6027 6.78755 15.2259L5.90453 14.6236C5.64275 14.4451 5.33323 14.3496 5.01635 14.3496H4.20399C3.52995 14.3496 2.9305 13.921 2.71248 13.2832L2.42504 12.4424C2.32485 12.1493 2.14053 11.8922 1.89511 11.7032L1.1148 11.1025C0.576916 10.6884 0.364573 9.97641 0.587749 9.33531L0.90283 8.43021C1.02332 8.08408 1.01943 7.70678 0.891831 7.3632L0.618466 6.62716C0.37795 5.97957 0.58714 5.25082 1.13452 4.8294L1.89511 4.24384C2.14053 4.05488 2.32485 3.79781 2.42504 3.50472L2.71248 2.66388C2.9305 2.02608 3.52995 1.5975 4.20398 1.5975H5.26735C5.62387 1.5975 5.96986 1.47663 6.24883 1.25464L6.7663 0.842856Z" fill="#FFED8C"/>
<path d="M11.7372 7.34304L8.58471 10.4955L7.95422 9.86503" fill="#F2CF18"/>
<path d="M3.54073 7.97354L5.50003 9.5C5.8617 9.86603 6.01993 9.89728 6.39348 9.54339L11.1785 5.0725M11.7372 7.34304L8.58471 10.4955L7.95422 9.86503M13.4838 11.6852L14.2742 11.0991C14.828 10.6885 15.0507 9.96573 14.824 9.3147L14.5161 8.43022C14.3956 8.08408 14.3995 7.70677 14.5271 7.36319L14.7928 6.64793C15.037 5.99045 14.8174 5.25071 14.254 4.83297L13.4838 4.26192C13.2141 4.06195 13.0153 3.7811 12.9164 3.46027L12.6848 2.70923C12.481 2.04834 11.8702 1.5975 11.1785 1.5975H10.2753C9.93961 1.5975 9.61269 1.49033 9.34215 1.2916L8.68092 0.805894C8.10752 0.384695 7.32303 0.39984 6.7663 0.842856L6.24883 1.25464C5.96986 1.47663 5.62387 1.5975 5.26735 1.5975H4.20398C3.52995 1.5975 2.9305 2.02608 2.71248 2.66388L2.42504 3.50472C2.32485 3.79781 2.14053 4.05488 1.89511 4.24384L1.13452 4.8294C0.58714 5.25082 0.37795 5.97957 0.618466 6.62716L0.891831 7.3632C1.01943 7.70678 1.02332 8.08408 0.90283 8.43021L0.587749 9.33531C0.364573 9.97641 0.576916 10.6884 1.1148 11.1025L1.89511 11.7032C2.14053 11.8922 2.32485 12.1493 2.42504 12.4424L2.71248 13.2832C2.9305 13.921 3.52995 14.3496 4.20399 14.3496H5.01635C5.33323 14.3496 5.64275 14.4451 5.90453 14.6236L6.78755 15.2259C7.33995 15.6027 8.06998 15.59 8.60888 15.1941L9.34215 14.6555C9.61269 14.4568 9.93961 14.3496 10.2753 14.3496H11.1785C11.8702 14.3496 12.481 13.8987 12.6848 13.2378L12.9164 12.4868C13.0153 12.166 13.2141 11.8851 13.4838 11.6852Z" stroke="#F2CF18" stroke-linecap="round" stroke-linejoin="round"/>
</svg>
